<?xml version="1.0" encoding="UTF-8"?><svg id="b" xmlns="http://www.w3.org/2000/svg" viewBox="0 0 35.73 66.9"><defs><style>.d{fill:#ccc;}.d,.e{stroke:#000;stroke-miterlimit:10;stroke-width:3px;}.e{fill:#fff;}</style></defs><g id="c"><polygon class="d" points="10.36 34.53 31.83 26.04 33.82 62.49 10.36 34.53"/><path class="e" d="M30.51,19.12c.56-2.7,.37-5.59-.72-8.35C26.81,3.25,18.3-.45,10.77,2.53S-.45,14.02,2.53,21.55c1.03,2.61,2.73,4.74,4.82,6.31-1.1,1.4-1.45,3.33-.75,5.11,1.05,2.67,4.07,3.98,6.74,2.92,1.1-.43,1.96-1.2,2.53-2.14,1.79,2.57,5.17,3.68,8.21,2.48s4.58-4.02,4.36-6.96c.82,.09,1.67,0,2.49-.33,2.67-1.05,3.98-4.07,2.92-6.74-.61-1.54-1.88-2.63-3.36-3.07Z"/></g></svg>