<?xml version="1.0" encoding="UTF-8"?><svg id="b" xmlns="http://www.w3.org/2000/svg" viewBox="0 0 45.27 47.49"><defs><style>.d{fill:#fff;}.e,.f,.g,.h,.i,.j{fill:none;stroke:#000;stroke-linecap:round;stroke-miterlimit:10;}.f{stroke-dasharray:0 0 0 0 4.69 4.69 2.81 1.88;}.g{stroke-dasharray:0 0 0 0 4.72 4.72 2.83 1.89;}.h{stroke-dasharray:0 0 0 0 3.13 3.13 1.88 1.25;}.i{stroke-dasharray:0 0 0 0 0 0 .63 2.51 3.13 3.13 1.88 1.25;}.j{stroke-dasharray:0 0 0 0 2.96 2.96 1.77 1.18;}</style></defs><g id="c"><g><g><path class="d" d="M1.81,46.08C1.59,30.77,9,16.49,7.23,1.41H43.03c1.79,15.23-6.03,29.22-4.96,44.67-12.09,0-24.17,0-36.26,0Z"/><path d="M41.96,2.82c3.03,14.05-8.08,27.58-5.48,41.85-11.19,0-22.37,0-33.56,0C1.99,30.65,11.89,16.53,8.94,2.82H41.96m2.33-2.82H5.7c0,1.13,.15,1.69,.45,2.82C9.09,16.42-.58,30.75,.03,44.67c.2,1.13,.37,1.69,.93,2.82H39.54c0-1.13-.1-1.69-.28-2.82-2.6-14.27,8.51-27.8,5.48-41.85-.3-1.13-.45-1.69-.45-2.82h0Z"/></g><g><line class="e" x1="12.93" y1="7.14" x2="13.43" y2="7.14"/><line class="g" x1="17.21" y1="7.14" x2="30.43" y2="7.14"/><line class="e" x1="31.37" y1="7.14" x2="31.87" y2="7.14"/></g><g><line class="e" x1="12.7" y1="11.61" x2="13.2" y2="11.61"/><line class="h" x1="15.7" y1="11.61" x2="24.48" y2="11.61"/><line class="i" x1="25.1" y1="11.61" x2="37.01" y2="11.61"/><line class="e" x1="37.64" y1="11.61" x2="38.14" y2="11.61"/></g><g><line class="e" x1="28.93" y1="22.67" x2="28.43" y2="22.67"/><line class="f" x1="24.68" y1="22.67" x2="11.55" y2="22.67"/><line class="e" x1="10.61" y1="22.67" x2="10.11" y2="22.67"/></g><g><line class="e" x1="13.17" y1="28.43" x2="13.67" y2="28.43"/><line class="f" x1="17.42" y1="28.43" x2="30.55" y2="28.43"/><line class="e" x1="31.49" y1="28.43" x2="31.99" y2="28.43"/></g><g><line class="e" x1="7.29" y1="40.78" x2="7.79" y2="40.78"/><line class="j" x1="10.15" y1="40.78" x2="18.43" y2="40.78"/><line class="e" x1="19.02" y1="40.78" x2="19.52" y2="40.78"/></g></g></g></svg>