<?xml version="1.0" encoding="UTF-8"?><svg id="b" xmlns="http://www.w3.org/2000/svg" viewBox="0 0 38 56.76"><defs><style>.d{fill:#ccc;}.e{fill:#fff;stroke:#000;stroke-miterlimit:10;stroke-width:3px;}</style></defs><g id="c"><path class="e" d="M36.45,1.5s.04,15.04-11.93,24.46c-1.39,1.09-1.39,3.52,0,4.61,11.98,9.44,11.98,24.69,11.98,24.69H1.5s0-15.25,11.98-24.69c1.39-1.1,1.39-3.52,0-4.61C1.51,16.54,1.55,1.5,1.55,1.5H36.45Z"/><path class="d" d="M28.79,15.26c2.58-4.65,2.58-9,2.58-9H6.62s0,4.35,2.58,9H28.79Z"/><path class="d" d="M9.03,42.21c-2.58,4.65-2.58,9-2.58,9H31.2s0-4.35-2.58-9H9.03Z"/></g></svg>